HIERARCHY
ROOT Hips
{
	OFFSET -0.001795 -0.223333 0.028219
	CHANNELS 6 Xposition Yposition Zposition Zrotation Yrotation Xrotation 
	JOINT LeftUpLeg
	{
		OFFSET 0.069520 -0.091406 -0.006815
		CHANNELS 3 Zrotation Yrotation Xrotation
		JOINT LeftLeg
		{
			OFFSET 0.034277 -0.375199 -0.004496
			CHANNELS 3 Zrotation Yrotation Xrotation
			JOINT LeftFoot
			{
				OFFSET -0.013596 -0.397961 -0.043693
				CHANNELS 3 Zrotation Yrotation Xrotation
				JOINT LeftToe
				{
					OFFSET 0.026358 -0.055791 0.119288
					CHANNELS 3 Zrotation Yrotation Xrotation
					End Site
					{
						OFFSET 0.000000 0.000000 0.000000
					}
				}
			}
		}
	}
	JOINT RightUpLeg
	{
		OFFSET -0.067670 -0.090522 -0.004320
		CHANNELS 3 Zrotation Yrotation Xrotation
		JOINT RightLeg
		{
			OFFSET -0.038290 -0.382569 -0.008850
			CHANNELS 3 Zrotation Yrotation Xrotation
			JOINT RightFoot
			{
				OFFSET 0.015774 -0.398415 -0.042312
				CHANNELS 3 Zrotation Yrotation Xrotation
				JOINT RightToe
				{
					OFFSET -0.025372 -0.048144 0.123348
					CHANNELS 3 Zrotation Yrotation Xrotation
					End Site
					{
						OFFSET 0.000000 0.000000 0.000000
					}
				}
			}
		}
	}
	JOINT Spine
	{
		OFFSET -0.002533 0.108963 -0.026696
		CHANNELS 3 Zrotation Yrotation Xrotation
		JOINT Spine1
		{
			OFFSET 0.005487 0.135180 0.001092
			CHANNELS 3 Zrotation Yrotation Xrotation
			JOINT Spine2
			{
				OFFSET 0.001457 0.052922 0.025425
				CHANNELS 3 Zrotation Yrotation Xrotation
				JOINT Neck
				{
					OFFSET -0.002778 0.213870 -0.042857
					CHANNELS 3 Zrotation Yrotation Xrotation
					JOINT Head
					{
						OFFSET 0.005152 0.064970 0.051349
						CHANNELS 3 Zrotation Yrotation Xrotation
						End Site
						{
							OFFSET 0.000000 0.000000 0.000000
						}
					}
				}
				JOINT LeftShoulder
				{
					OFFSET 0.078845 0.121749 -0.034090
					CHANNELS 3 Zrotation Yrotation Xrotation
					JOINT LeftArm
					{
						OFFSET 0.090977 0.030469 -0.008868
						CHANNELS 3 Zrotation Yrotation Xrotation
						JOINT LeftForeArm
						{
							OFFSET 0.259612 -0.012772 -0.027456
							CHANNELS 3 Zrotation Yrotation Xrotation
							JOINT LeftHand
							{
								OFFSET 0.249234 0.008986 -0.001171
								CHANNELS 3 Zrotation Yrotation Xrotation
								End Site
								{
									OFFSET 0.000000 0.000000 0.000000
								}
							}
						}
					}
				}
				JOINT RightShoulder
				{
					OFFSET -0.081759 0.118833 -0.038615
					CHANNELS 3 Zrotation Yrotation Xrotation
					JOINT RightArm
					{
						OFFSET -0.096012 0.032551 -0.009143
						CHANNELS 3 Zrotation Yrotation Xrotation
						JOINT RightForeArm
						{
							OFFSET -0.253742 -0.013329 -0.021401
							CHANNELS 3 Zrotation Yrotation Xrotation
							JOINT RightHand
							{
								OFFSET -0.255298 0.007772 -0.005559
								CHANNELS 3 Zrotation Yrotation Xrotation
								End Site
								{
									OFFSET 0.000000 0.000000 0.000000
								}
							}
						}
					}
				}
			}
		}
	}
}
MOTION
Frames: 6
Frame Time: 0.050000
-0.118652 0.957807 0.019169 0.376393 10.593452 9.423892 3.569726 -0.161891 0.667908 3.293983 0.128874 -7.428505 4.929483 14.177598 16.066242 0.000000 0.000000 0.000000 0.381749 1.465107 -15.939802 -8.278121 1.607829 6.693446 3.996521 7.449591 5.260315 0.000000 0.000000 0.000000 4.927838 0.140369 -4.897583 5.928657 -2.539928 -2.460887 -12.083513 -7.007284 9.577131 9.432574 -7.175979 -3.191389 0.000000 0.000000 0.000000 -8.274180 -11.689487 4.220318 -50.016234 -20.144043 2.138161 -46.619877 -50.236577 25.303035 0.000000 0.000000 0.000000 -0.802747 -11.186449 -3.790187 41.677048 -13.812870 -8.336832 124.172461 35.768172 64.764031 0.000000 0.000000 0.000000 
-0.117320 0.957750 0.017080 0.794693 11.762349 9.825505 3.389225 -0.176998 0.309416 2.689655 0.151807 -7.600737 4.534472 13.638229 15.532942 0.000000 0.000000 0.000000 -0.515469 1.357689 -16.198545 -8.016445 1.567711 6.758552 3.725834 6.890800 5.306559 0.000000 0.000000 0.000000 4.520374 0.077949 -4.083408 6.350060 -2.646894 -3.120003 -11.959226 -7.575146 10.024494 8.945068 -6.388389 -5.215362 0.000000 0.000000 0.000000 -7.436622 -13.174382 4.832316 -49.986191 -23.060980 3.370710 -47.738867 -53.290693 27.720886 0.000000 0.000000 0.000000 -0.454162 -10.828398 -3.741710 42.157012 -13.080391 -8.227181 127.186828 38.233978 72.535633 0.000000 0.000000 0.000000 
-0.115459 0.957741 0.013501 1.308956 11.918919 10.084666 2.661985 -0.167547 -0.337065 2.193109 0.163429 -7.602133 4.815971 13.878827 14.691813 0.000000 0.000000 0.000000 -1.575891 1.259199 -16.800587 -7.939816 1.568948 6.930941 3.782557 6.992805 5.379584 0.000000 0.000000 0.000000 4.219795 -0.020618 -2.569600 6.460651 -2.618846 -3.722004 -11.409398 -7.934009 10.220954 7.700031 -5.183845 -6.732916 0.000000 0.000000 0.000000 -6.058397 -15.483628 5.777297 -50.571115 -28.283742 5.776515 -43.366637 -56.594269 27.134043 0.000000 0.000000 0.000000 -0.323552 -8.380884 -2.912126 44.392559 -9.159595 -7.459236 130.822767 43.495806 85.671075 0.000000 0.000000 0.000000 
-0.113262 0.957769 0.008893 1.711606 12.157762 10.607127 2.439276 -0.219809 -1.351583 1.506744 0.184890 -7.831051 5.072711 14.335435 14.984004 0.000000 0.000000 0.000000 -2.283546 1.179446 -17.092486 -8.056477 1.484510 5.796966 4.198398 7.251500 6.849741 0.000000 0.000000 0.000000 4.018381 -0.115413 -1.192984 7.390028 -2.919107 -4.568579 -11.692646 -7.559297 10.059423 7.346200 -4.577532 -8.368806 0.000000 0.000000 0.000000 -4.592464 -18.560924 6.850458 -49.780327 -35.176997 8.783083 -30.989725 -57.674963 20.099942 0.000000 0.000000 0.000000 0.591555 -4.548803 -1.693043 46.161357 -0.994919 -4.863426 132.537909 55.104341 104.945377 0.000000 0.000000 0.000000 
-0.110853 0.958543 0.003268 1.993463 11.602427 11.252011 1.331014 -0.245131 -2.449955 1.908047 0.191883 -8.178905 5.386622 14.815823 15.280241 0.000000 0.000000 0.000000 -3.204196 1.099139 -17.656782 -7.559577 1.301709 4.638572 4.788159 7.628927 8.644600 0.000000 0.000000 0.000000 4.287756 -0.232590 0.119726 7.374488 -2.889832 -4.717263 -11.245279 -6.700519 9.612017 7.328701 -4.205453 -10.100826 0.000000 0.000000 0.000000 -1.929412 -22.660904 8.115907 -48.429104 -43.997254 12.530971 -12.609014 -54.464872 8.883625 0.000000 0.000000 0.000000 0.494051 0.294470 0.055895 47.917963 10.742000 -0.570291 126.520378 72.247597 116.550653 0.000000 0.000000 0.000000 
-0.108571 0.959504 -0.002840 2.404346 11.297769 11.581122 0.322222 -0.264732 -3.152723 2.250712 0.185117 -8.109124 5.353710 14.736028 15.132062 0.000000 0.000000 0.000000 -3.564536 1.096475 -18.570815 -7.898815 1.373859 4.914490 5.002146 7.608424 9.558005 0.000000 0.000000 0.000000 4.834633 -0.412068 1.808930 7.248360 -2.911236 -4.089987 -10.977310 -5.709826 8.334984 6.803276 -3.808375 -9.640661 0.000000 0.000000 0.000000 -0.426937 -27.952563 9.826697 -40.318277 -51.335786 12.672059 1.238898 -45.967814 1.307251 0.000000 0.000000 0.000000 -0.237727 7.237979 2.579581 46.814752 22.399120 4.055508 -22.254700 82.397250 -14.243073 0.000000 0.000000 0.000000 
